<svg xmlns="http://www.w3.org/2000/svg" width="125" height="41" viewBox="0 0 125 41"><defs><clipPath id="v991a"><path fill="#fff" d="M1 1h123v39H1z"/></clipPath><clipPath id="v991b"><path fill="#fff" d="M13 11.897c0-.494.383-.897.85-.897h3.078c.382 0 .723.269.822.657L21.224 24.9h9.471l3.148-7.622H23.351c-.468 0-.851-.404-.851-.897s.383-.896.85-.896h11.797c.284 0 .553.15.71.403a.95.95 0 0 1 .07.852l-3.885 9.416c-.142.329-.44.538-.78.538H20.586a.859.859 0 0 1-.823-.658L16.29 12.793h-2.438c-.468 0-.851-.403-.851-.896zm4.85 19.07c0-1.12.864-2.032 1.927-2.032 1.064 0 1.929.911 1.929 2.032S20.84 33 19.777 33c-1.063 0-1.928-.912-1.928-2.033zm12.065.135c-.07-1.106.724-2.093 1.787-2.167 1.063-.075 1.985.777 2.056 1.883.028.553-.128 1.076-.468 1.48-.34.418-.808.657-1.319.702h-.141c-1.007 0-1.844-.837-1.915-1.898z"/></clipPath></defs><g><g><g><path fill="#fff" d="M1 1h123v39H1z"/><path fill="none" stroke="#fff" stroke-linecap="round" stroke-linejoin="round" stroke-miterlimit="20" stroke-width="2" d="M1 1v0h123v39H1v0z" clip-path="url(&quot;#v991a&quot;)"/></g><g><path fill="#fff" d="M13 11.897c0-.494.383-.897.85-.897h3.078c.382 0 .723.269.822.657L21.224 24.9h9.471l3.148-7.622H23.351c-.468 0-.851-.404-.851-.897s.383-.896.85-.896h11.797c.284 0 .553.15.71.403a.95.95 0 0 1 .07.852l-3.885 9.416c-.142.329-.44.538-.78.538H20.586a.859.859 0 0 1-.823-.658L16.29 12.793h-2.438c-.468 0-.851-.403-.851-.896zm4.85 19.07c0-1.12.864-2.032 1.927-2.032 1.064 0 1.929.911 1.929 2.032S20.84 33 19.777 33c-1.063 0-1.928-.912-1.928-2.033zm12.065.135c-.07-1.106.724-2.093 1.787-2.167 1.063-.075 1.985.777 2.056 1.883.028.553-.128 1.076-.468 1.48-.34.418-.808.657-1.319.702h-.141c-1.007 0-1.844-.837-1.915-1.898z"/><path fill="none" stroke="#fff" stroke-linecap="round" stroke-linejoin="round" stroke-miterlimit="20" stroke-width="4" d="M13 11.897c0-.494.383-.897.85-.897h3.078c.382 0 .723.269.822.657L21.224 24.9h9.471l3.148-7.622H23.351c-.468 0-.851-.404-.851-.897s.383-.896.85-.896h11.797c.284 0 .553.15.71.403a.95.95 0 0 1 .07.852l-3.885 9.416c-.142.329-.44.538-.78.538H20.586a.859.859 0 0 1-.823-.658L16.29 12.793h-2.438c-.468 0-.851-.403-.851-.896zm4.85 19.07c0-1.12.864-2.032 1.927-2.032 1.064 0 1.929.911 1.929 2.032S20.84 33 19.777 33c-1.063 0-1.928-.912-1.928-2.033zm12.065.135c-.07-1.106.724-2.093 1.787-2.167 1.063-.075 1.985.777 2.056 1.883.028.553-.128 1.076-.468 1.48-.34.418-.808.657-1.319.702h-.141c-1.007 0-1.844-.837-1.915-1.898z" clip-path="url(&quot;#v991b&quot;)"/></g><g><g><text fill="#fff" dominant-baseline="text-before-edge" font-family="'Lato','Lato-Bold'" font-size="13" font-style="none" font-weight="700" transform="translate(44 16)"><tspan style="font-kerning:normal">Add to Cart</tspan></text></g></g></g></g></svg>